<?xml version="1.0" encoding="iso-8859-1"?>
<!-- Generator: Adobe Illustrator 16.0.0, SVG Export Plug-In . SVG Version: 6.00 Build 0)  -->
<!DOCTYPE svg PUBLIC "-//W3C//DTD SVG 1.1//EN" "http://www.w3.org/Graphics/SVG/1.1/DTD/svg11.dtd">
<svg version="1.1" id="Capa_1" xmlns="http://www.w3.org/2000/svg" xmlns:xlink="http://www.w3.org/1999/xlink" x="0px" y="0px"
	 width="68.269px" height="68.269px" viewBox="0 0 68.269 68.269" style="enable-background:new 0 0 68.269 68.269;"
	 xml:space="preserve">
<g>
	<g>
		<path d="M67.666,35.313L53.849,21.495v-9.111c0-1.136-0.92-2.057-2.056-2.057s-2.056,0.921-2.056,2.057v5.002l-9.748-9.748
			c-0.802-0.804-2.104-0.804-2.907,0L22.607,22.112c-0.803,0.803-0.803,2.104,0,2.907c0.803,0.803,2.104,0.803,2.906,0
			l13.021-13.021l26.226,26.223c0.398,0.399,0.926,0.602,1.451,0.602s1.053-0.199,1.453-0.602
			C68.47,37.417,68.47,36.116,67.666,35.313z"/>
		<path d="M61.785,37.675L39.989,15.877c-0.386-0.386-0.908-0.602-1.453-0.602s-1.066,0.216-1.453,0.602L25.938,27.022
			c0.034-0.001,0.067-0.009,0.101-0.009c0.626,0,1.236,0.18,1.761,0.518c0.832,0.535,1.37,1.407,1.476,2.393l0.006,0.048
			l0.159-0.003c0.95,0,1.849,0.408,2.468,1.123c0.647,0.749,0.917,1.736,0.742,2.711l-0.009,0.048l0.046,0.012
			c0.96,0.243,1.746,0.899,2.158,1.801c0.41,0.901,0.395,1.927-0.051,2.812l-0.021,0.043l0.041,0.023
			c0.604,0.355,1.062,0.893,1.328,1.521c0.602-0.671,1.441-1.123,2.396-1.214c1.877,0.179,3.33,1.762,3.33,3.659v7.812
			c0,1.253,0.471,2.45,1.323,3.373c0.938,1.013,2.269,1.595,3.646,1.595h10.641c2.738,0,4.969-2.229,4.969-4.967v-10.64
			c-0.002-0.311-0.032-0.628-0.092-0.942C62.273,38.333,62.076,37.965,61.785,37.675z"/>
		<path d="M34.936,41.087c-0.078-0.539-0.396-1.016-0.863-1.293l-1.209-0.717l0.63-1.256c0.244-0.486,0.254-1.06,0.026-1.556
			c-0.228-0.494-0.664-0.86-1.19-0.996l-1.362-0.346l0.251-1.384c0.097-0.536-0.055-1.087-0.41-1.499
			c-0.356-0.41-0.88-0.638-1.426-0.618l-1.404,0.05l-0.149-1.396c-0.058-0.542-0.357-1.027-0.816-1.323
			c-0.458-0.295-1.024-0.363-1.542-0.191l-1.333,0.445l-0.538-1.301c-0.208-0.503-0.633-0.885-1.155-1.038
			c-0.522-0.152-1.086-0.062-1.533,0.249l-1.154,0.804l-0.881-1.096c-0.343-0.425-0.857-0.671-1.401-0.671
			c-0.546,0-1.06,0.246-1.401,0.671l-0.882,1.095l-1.154-0.803c-0.446-0.312-1.011-0.401-1.532-0.249
			c-0.523,0.153-0.949,0.535-1.156,1.038l-0.537,1.301l-1.332-0.445c-0.518-0.172-1.085-0.103-1.542,0.191
			c-0.459,0.296-0.758,0.781-0.816,1.323l-0.149,1.396L5.57,31.422c-0.54-0.015-1.067,0.209-1.425,0.618
			c-0.355,0.412-0.508,0.963-0.409,1.499l0.25,1.385L2.625,35.27c-0.528,0.135-0.967,0.501-1.193,0.996S1.217,37.33,1.46,37.821
			l0.631,1.256L0.88,39.794c-0.468,0.277-0.786,0.752-0.862,1.291c-0.078,0.539,0.094,1.084,0.464,1.481l0.959,1.027l-0.959,1.027
			c-0.37,0.396-0.542,0.942-0.464,1.481c0.076,0.539,0.395,1.015,0.862,1.291l1.211,0.716L1.46,49.367
			c-0.244,0.486-0.254,1.061-0.028,1.556c0.227,0.493,0.665,0.858,1.193,0.993l1.361,0.35l-0.25,1.383
			c-0.099,0.536,0.054,1.089,0.409,1.498c0.357,0.411,0.882,0.64,1.425,0.62l1.406-0.052l0.148,1.396
			c0.059,0.541,0.359,1.027,0.816,1.322c0.458,0.294,1.024,0.364,1.542,0.192l1.333-0.444l0.536,1.299
			c0.208,0.504,0.634,0.887,1.156,1.039c0.522,0.153,1.082,0.062,1.53-0.248l1.155-0.803l0.881,1.095
			c0.342,0.425,0.856,0.671,1.4,0.671c0.545,0,1.061-0.246,1.401-0.671l0.883-1.095l1.153,0.803c0.446,0.311,1.01,0.399,1.533,0.249
			c0.522-0.153,0.947-0.534,1.155-1.039l0.537-1.299l1.333,0.443c0.518,0.174,1.083,0.103,1.542-0.192
			c0.458-0.294,0.759-0.779,0.815-1.32l0.149-1.396l1.405,0.052c0.538,0.02,1.068-0.209,1.426-0.62
			c0.355-0.409,0.507-0.962,0.409-1.498l-0.251-1.384l1.362-0.349c0.528-0.135,0.967-0.5,1.192-0.992
			c0.225-0.495,0.215-1.067-0.028-1.557l-0.63-1.256l1.209-0.718c0.468-0.276,0.785-0.752,0.863-1.291
			c0.082-0.538-0.091-1.083-0.461-1.481l-0.959-1.026l0.959-1.028C34.841,42.169,35.015,41.624,34.936,41.087z M4.757,44.495
			l-1.034-0.474l2.336-6.058l0.858,0.387L4.757,44.495z M19.177,52.617L7.709,44.972l1.031-5.288l5.365-2.967l1.04,0.655
			l-2.804,5.189c-0.191,0.354-0.077,0.797,0.262,1.018L15,45.12c0.312,0.198,0.719,0.149,0.974-0.114l3.262-3.409l7.006,6.064
			L19.177,52.617z M26.182,45.57l-6.49-5.621c-0.076-0.062-0.161-0.11-0.25-0.144c-0.028-0.012-0.06-0.01-0.09-0.018
			c-0.055-0.013-0.109-0.027-0.165-0.027c-0.008,0-0.017,0.002-0.025,0.002c-0.009,0.001-0.019,0.003-0.029,0.004
			c-0.087,0.006-0.173,0.023-0.254,0.062c-0.006,0.002-0.011,0.006-0.016,0.008c-0.085,0.039-0.164,0.095-0.233,0.164l-3.329,3.479
			l-1.262-0.812l2.619-4.851l3.286-0.436l5.876,2.367l1.256,4.746L26.182,45.57z M29.775,43.894l-2.333-5.651l1.04-0.47l2.645,5.743
			L29.775,43.894z"/>
	</g>
</g>
<g>
</g>
<g>
</g>
<g>
</g>
<g>
</g>
<g>
</g>
<g>
</g>
<g>
</g>
<g>
</g>
<g>
</g>
<g>
</g>
<g>
</g>
<g>
</g>
<g>
</g>
<g>
</g>
<g>
</g>
</svg>
