<?xml version="1.0" encoding="iso-8859-1"?>
<!-- Generator: Adobe Illustrator 16.0.0, SVG Export Plug-In . SVG Version: 6.00 Build 0)  -->
<!DOCTYPE svg PUBLIC "-//W3C//DTD SVG 1.1//EN" "http://www.w3.org/Graphics/SVG/1.1/DTD/svg11.dtd">
<svg version="1.1" id="Capa_1" xmlns="http://www.w3.org/2000/svg" xmlns:xlink="http://www.w3.org/1999/xlink" x="0px" y="0px"
	 width="71.477px" height="71.477px" viewBox="0 0 71.477 71.477" style="enable-background:new 0 0 71.477 71.477;"
	 xml:space="preserve">
<g>
	<g>
		<path d="M32.888,45.049v-1.248c0-2.74-2.229-4.97-4.969-4.97h-4.401V26.448h1.062c2.738,0,4.968-2.228,4.968-4.968v-0.356
			c0-2.74-2.229-4.969-4.968-4.969H8.308c-2.739,0-4.969,2.229-4.969,4.969v0.356c0,2.74,2.229,4.968,4.969,4.968H9.99V38.83H4.969
			C2.23,38.83,0,41.06,0,43.801v1.248c0,2.738,2.229,4.969,4.969,4.969h22.95C30.657,50.017,32.888,47.787,32.888,45.049z"/>
		<path d="M70.872,36.808L57.057,22.992v-9.113c0-1.135-0.92-2.055-2.058-2.055c-1.135,0-2.055,0.92-2.055,2.055v5.002l-9.749-9.748
			c-0.803-0.803-2.104-0.803-2.905,0l-8.604,8.604c0.491,1.028,0.774,2.174,0.774,3.387v0.357c0,0.488-0.047,0.964-0.131,1.427
			l9.414-9.413l26.224,26.224c0.4,0.398,0.928,0.603,1.452,0.603c0.526,0,1.054-0.201,1.453-0.603
			C71.678,38.913,71.678,37.611,70.872,36.808z"/>
		<path d="M64.993,39.169L43.196,17.373c-0.386-0.386-0.908-0.603-1.453-0.603c-0.544,0-1.065,0.217-1.453,0.603L26.432,31.232
			v4.685h1.487c4.346,0,7.883,3.535,7.883,7.884v1.248c0,4.346-3.537,7.883-7.883,7.883h-6.218v3.725
			c0.355,0.082,0.725,0.128,1.104,0.128h10.639c1.377,0,2.704-0.582,3.646-1.599c0.854-0.922,1.323-2.118,1.323-3.373V44
			c0-1.896,1.453-3.479,3.329-3.658c1.878,0.18,3.33,1.762,3.33,3.658v7.812c0,1.252,0.471,2.451,1.324,3.373
			c0.938,1.017,2.268,1.598,3.646,1.598h10.639c2.737,0,4.969-2.229,4.969-4.971V41.176c0-0.312-0.029-0.629-0.092-0.941
			C65.479,39.829,65.284,39.459,64.993,39.169z"/>
		<path d="M16.733,50.542c-1.136,0-2.057,0.92-2.057,2.058v8.289c0,1.137,0.921,2.057,2.057,2.057c1.135,0,2.054-0.92,2.054-2.057
			V52.6C18.787,51.461,17.868,50.542,16.733,50.542z"/>
	</g>
</g>
<g>
</g>
<g>
</g>
<g>
</g>
<g>
</g>
<g>
</g>
<g>
</g>
<g>
</g>
<g>
</g>
<g>
</g>
<g>
</g>
<g>
</g>
<g>
</g>
<g>
</g>
<g>
</g>
<g>
</g>
</svg>
